<svg width="2208" height="1152" xmlns="http://www.w3.org/2000/svg" xmlns:xlink="http://www.w3.org/1999/xlink" overflow="hidden"><g><rect x="0" y="0" width="2208" height="1152" fill="#FFFFFF"/><rect x="105" y="87" width="413" height="274" stroke="#4E95D9" stroke-width="2" stroke-miterlimit="8" fill="#DCEAF7"/><path d="M0 158 28.1129 0 184 0 155.887 158Z" stroke="#3A3A3A" stroke-width="4" stroke-miterlimit="8" fill="#E8E8E8" fill-rule="evenodd" transform="matrix(-1.83697e-16 -1 -1 1.83697e-16 320 322)"/><path d="M0 158 28.1129 0 184 0 155.887 158Z" stroke="#3A3A3A" stroke-width="4" stroke-miterlimit="8" fill="#BFBFBF" fill-rule="evenodd" transform="matrix(-1.83697e-16 -1 -1 1.83697e-16 394 322)"/><path d="M0 158 28.1129 0 184 0 155.887 158Z" stroke="#3A3A3A" stroke-width="4" stroke-miterlimit="8" fill="#E8E8E8" fill-rule="evenodd" transform="matrix(-1.83697e-16 -1 -1 1.83697e-16 469 322)"/><rect x="876" y="87" width="413" height="274" stroke="#3B7D23" stroke-width="2" stroke-miterlimit="8" fill="#D9F2D0"/><path d="M898 322 898 123 1016 162.8 1016 282.2Z" stroke="#275317" stroke-width="4" stroke-miterlimit="8" fill="#E8E8E8" fill-rule="evenodd"/><path d="M0 0 199 0 159.2 118 39.8 118Z" stroke="#275317" stroke-width="4" stroke-miterlimit="8" fill="#E8E8E8" fill-rule="evenodd" transform="matrix(-1.83697e-16 -1 -1 1.83697e-16 1268 322)"/><rect x="1036" y="162" width="87" height="120" stroke="#275317" stroke-width="4" stroke-miterlimit="8" fill="#E8E8E8"/><path d="M1016.5 222.5 1036.57 222.5" stroke="#156082" stroke-width="1.33333" stroke-miterlimit="8" stroke-dasharray="1.33333 1.33333" fill="none" fill-rule="evenodd"/><path d="M0 0 26.5537 0.000209974" stroke="#275317" stroke-width="1.33333" stroke-miterlimit="8" stroke-dasharray="1.33333 1.33333" fill="none" fill-rule="evenodd" transform="matrix(-1 0 0 1 1150.05 222.5)"/><rect x="1695" y="87" width="414" height="274" stroke="#80350E" stroke-width="2" stroke-miterlimit="8" fill="#FBE3D6"/><path d="M0 159 28.2908 0 184 0 155.709 159Z" stroke="#80350E" stroke-width="4" stroke-miterlimit="8" fill="#E8E8E8" fill-rule="evenodd" transform="matrix(-1.83697e-16 -1 -1 1.83697e-16 1911 322)"/><path d="M0 158 28.1129 0 184 0 155.887 158Z" stroke="#80350E" stroke-width="4" stroke-miterlimit="8" fill="#BFBFBF" fill-rule="evenodd" transform="matrix(-1.83697e-16 -1 -1 1.83697e-16 1985 322)"/><path d="M0 159 28.2908 0 184 0 155.709 159Z" stroke="#80350E" stroke-width="4" stroke-miterlimit="8" fill="#E8E8E8" fill-rule="evenodd" transform="matrix(-1.83697e-16 -1 -1 1.83697e-16 2060 322)"/><rect x="105" y="680" width="413" height="274" stroke="#4E95D9" stroke-width="2" stroke-miterlimit="8" fill="#DCEAF7"/><path d="M0 158 28.113 0 185 0 156.887 158Z" stroke="#3A3A3A" stroke-width="4" stroke-miterlimit="8" stroke-dasharray="4 4" fill="#E8E8E8" fill-rule="evenodd" transform="matrix(-1.83697e-16 -1 -1 1.83697e-16 320 915)"/><path d="M0 158 28.113 0 185 0 156.887 158Z" stroke="#3A3A3A" stroke-width="4" stroke-miterlimit="8" stroke-dasharray="4 4" fill="#BFBFBF" fill-rule="evenodd" transform="matrix(-1.83697e-16 -1 -1 1.83697e-16 394 915)"/><path d="M0 158 28.113 0 185 0 156.887 158Z" stroke="#3A3A3A" stroke-width="4" stroke-miterlimit="8" stroke-dasharray="4 4" fill="#E8E8E8" fill-rule="evenodd" transform="matrix(-1.83697e-16 -1 -1 1.83697e-16 469 915)"/><path d="M390 745 390 900.835" stroke="#3A3A3A" stroke-width="8" stroke-miterlimit="8" fill="none" fill-rule="evenodd"/><path d="M315 745 315 758.842" stroke="#3A3A3A" stroke-width="8" stroke-miterlimit="8" fill="none" fill-rule="evenodd"/><path d="M241 745 241 758.842" stroke="#3A3A3A" stroke-width="8" stroke-miterlimit="8" fill="none" fill-rule="evenodd"/><path d="M362.096 795.339 368.435 799.53 372.625 793.191 375.161 794.867 370.97 801.206 377.309 805.397 375.633 807.932 369.294 803.742 365.103 810.081 362.568 808.404 366.758 802.065 360.419 797.875Z" stroke="#3A3A3A" stroke-width="2" stroke-miterlimit="8" fill="#3A3A3A" fill-rule="evenodd"/><path d="M330.912 802.935 337.251 807.126 341.442 800.787 343.977 802.463 339.787 808.802 346.125 812.993 344.449 815.528 338.11 811.338 333.919 817.677 331.384 816 335.575 809.661 329.236 805.471Z" stroke="#3A3A3A" stroke-width="2" stroke-miterlimit="8" fill="#3A3A3A" fill-rule="evenodd"/><path d="M403.376 790.299 409.715 794.49 413.906 788.151 416.441 789.827 412.251 796.166 418.59 800.357 416.913 802.893 410.574 798.702 406.384 805.041 403.848 803.364 408.039 797.026 401.7 792.835Z" stroke="#3A3A3A" stroke-width="2" stroke-miterlimit="8" fill="#3A3A3A" fill-rule="evenodd"/><path d="M432.563 781.215 438.902 785.406 443.093 779.067 445.629 780.743 441.438 787.082 447.777 791.273 446.1 793.808 439.761 789.617 435.571 795.956 433.035 794.28 437.226 787.941 430.887 783.75Z" stroke="#3A3A3A" stroke-width="2" stroke-miterlimit="8" fill="#3A3A3A" fill-rule="evenodd"/><path d="M365.257 851.987 371.595 856.178 375.786 849.839 378.322 851.515 374.131 857.854 380.47 862.045 378.794 864.58 372.455 860.389 368.264 866.728 365.728 865.052 369.919 858.713 363.58 854.522Z" stroke="#3A3A3A" stroke-width="2" stroke-miterlimit="8" fill="#3A3A3A" fill-rule="evenodd"/><path d="M334.073 859.583 340.412 863.774 344.603 857.435 347.138 859.111 342.947 865.45 349.286 869.641 347.61 872.176 341.271 867.985 337.08 874.324 334.545 872.648 338.736 866.309 332.397 862.118Z" stroke="#3A3A3A" stroke-width="2" stroke-miterlimit="8" fill="#3A3A3A" fill-rule="evenodd"/><path d="M401.607 844.539 407.946 848.73 412.137 842.391 414.672 844.067 410.481 850.406 416.82 854.597 415.144 857.132 408.805 852.941 404.614 859.28 402.079 857.604 406.269 851.265 399.931 847.074Z" stroke="#3A3A3A" stroke-width="2" stroke-miterlimit="8" fill="#3A3A3A" fill-rule="evenodd"/><path d="M432.727 838.689 439.066 842.879 443.256 836.54 445.792 838.217 441.601 844.556 447.94 848.746 446.264 851.282 439.925 847.091 435.734 853.43 433.198 851.754 437.389 845.415 431.05 841.224Z" stroke="#3A3A3A" stroke-width="2" stroke-miterlimit="8" fill="#3A3A3A" fill-rule="evenodd"/><path d="M287.342 798.041 293.681 802.232 297.872 795.893 300.408 797.569 296.217 803.908 302.556 808.099 300.879 810.634 294.54 806.443 290.35 812.782 287.814 811.106 292.005 804.767 285.666 800.576Z" stroke="#3A3A3A" stroke-width="2" stroke-miterlimit="8" fill="#3A3A3A" fill-rule="evenodd"/><path d="M253.158 803.081 259.497 807.272 263.688 800.933 266.223 802.609 262.033 808.948 268.372 813.139 266.695 815.674 260.356 811.484 256.166 817.822 253.63 816.146 257.821 809.807 251.482 805.616Z" stroke="#3A3A3A" stroke-width="2" stroke-miterlimit="8" fill="#3A3A3A" fill-rule="evenodd"/><path d="M287.503 852.133 293.842 856.324 298.032 849.985 300.568 851.661 296.377 858 302.716 862.191 301.04 864.726 294.701 860.535 290.51 866.874 287.974 865.198 292.165 858.859 285.826 854.668Z" stroke="#3A3A3A" stroke-width="2" stroke-miterlimit="8" fill="#3A3A3A" fill-rule="evenodd"/><path d="M256.319 859.729 262.658 863.919 266.849 857.581 269.384 859.257 265.193 865.596 271.532 869.787 269.856 872.322 263.517 868.131 259.326 874.47 256.791 872.794 260.982 866.455 254.643 862.264Z" stroke="#3A3A3A" stroke-width="2" stroke-miterlimit="8" fill="#3A3A3A" fill-rule="evenodd"/><path d="M213.564 794.152 219.903 798.343 224.094 792.004 226.629 793.681 222.438 800.02 228.777 804.21 227.101 806.746 220.762 802.555 216.571 808.894 214.036 807.218 218.227 800.879 211.888 796.688Z" stroke="#3A3A3A" stroke-width="2" stroke-miterlimit="8" fill="#3A3A3A" fill-rule="evenodd"/><path d="M178.718 802.935 185.057 807.126 189.248 800.787 191.783 802.463 187.592 808.802 193.931 812.993 192.255 815.528 185.916 811.338 181.725 817.677 179.19 816 183.381 809.661 177.042 805.471Z" stroke="#3A3A3A" stroke-width="2" stroke-miterlimit="8" fill="#3A3A3A" fill-rule="evenodd"/><path d="M213.062 851.987 219.401 856.178 223.592 849.839 226.128 851.515 221.937 857.854 228.276 862.045 226.599 864.58 220.26 860.389 216.07 866.728 213.534 865.052 217.725 858.713 211.386 854.522Z" stroke="#3A3A3A" stroke-width="2" stroke-miterlimit="8" fill="#3A3A3A" fill-rule="evenodd"/><path d="M181.879 859.583 188.218 863.774 192.408 857.435 194.944 859.111 190.753 865.45 197.092 869.641 195.416 872.176 189.077 867.985 184.886 874.324 182.351 872.648 186.541 866.309 180.202 862.118Z" stroke="#3A3A3A" stroke-width="2" stroke-miterlimit="8" fill="#3A3A3A" fill-rule="evenodd"/><rect x="1695" y="681" width="414" height="274" stroke="#275317" stroke-width="2" stroke-miterlimit="8" fill="#D9F2D0"/><path d="M0 159 28.2908 0 184 0 155.709 159Z" stroke="#275317" stroke-width="4" stroke-miterlimit="8" fill="#E8E8E8" fill-rule="evenodd" transform="matrix(-1.83697e-16 -1 -1 1.83697e-16 1911 916)"/><path d="M0 158 28.1129 0 184 0 155.887 158Z" stroke="#275317" stroke-width="4" stroke-miterlimit="8" fill="#BFBFBF" fill-rule="evenodd" transform="matrix(-1.83697e-16 -1 -1 1.83697e-16 1985 916)"/><path d="M0 159 28.2908 0 184 0 155.709 159Z" stroke="#275317" stroke-width="4" stroke-miterlimit="8" fill="#E8E8E8" fill-rule="evenodd" transform="matrix(-1.83697e-16 -1 -1 1.83697e-16 2060 916)"/><rect x="1695" y="437" width="414" height="91" stroke="#275317" stroke-width="2" stroke-miterlimit="8" fill="#D9F2D0"/><text font-family="Calibri,Calibri_MSFontService,sans-serif" font-weight="400" font-size="57.8" transform="translate(1852.04 502)">Loss</text><path d="M518.5 222.167 864.373 222.167 864.373 226.833 518.5 226.833ZM862.04 217.5 876.04 224.5 862.04 231.5Z" fill="#156082"/><path d="M1289.5 222.167 1683.75 222.167 1683.75 226.833 1289.5 226.833ZM1681.42 217.5 1695.42 224.5 1681.42 231.5Z" fill="#156082"/><path d="M313.833 361.5 313.833 587.51 309.167 587.51 309.167 361.5ZM318.5 585.177 311.5 599.177 304.5 585.177Z" fill="#156082"/><path d="M518.508 815.167 864.38 816.286 864.365 820.952 518.492 819.833ZM862.062 811.612 876.04 818.657 862.017 825.612Z" fill="#156082"/><path d="M2.33333-6.37539e-07 2.33344 372.576-2.33323 372.576-2.33333 6.37539e-07ZM7.0001 370.242 0.000104987 384.242-6.9999 370.242Z" fill="#156082" transform="matrix(1 0 0 -1 1083.5 745.742)"/><path d="M2.33333-3.36863e-06 2.33342 61.0542-2.33325 61.0542-2.33333 3.36863e-06ZM7.00008 58.7208 0.000104987 72.7208-6.99992 58.7209Z" fill="#156082" transform="matrix(1 0 0 -1 1902.5 601.221)"/><path d="M1904.83 361.5 1904.83 425.186 1900.17 425.186 1900.17 361.5ZM1909.5 422.853 1902.5 436.853 1895.5 422.853Z" fill="#156082"/><path d="M1926.83 528.5 1926.83 589.555 1922.17 589.555 1922.17 528.5ZM1931.5 587.222 1924.5 601.222 1917.5 587.222Z" fill="#C00000"/><rect x="105" y="5" width="413" height="81" stroke="#4E95D9" stroke-width="2" stroke-miterlimit="8" fill="#DCEAF7"/><text font-family="Calibri,Calibri_MSFontService,sans-serif" font-weight="400" font-size="33.72" transform="translate(162.395 37)">Preprocessed velocity</text><text font-family="Calibri,Calibri_MSFontService,sans-serif" font-weight="400" font-size="33.72" transform="translate(202.808 77)">fluctuation field</text><rect x="105" y="599" width="413" height="81" stroke="#4E95D9" stroke-width="2" stroke-miterlimit="8" fill="#DCEAF7"/><text font-family="Calibri,Calibri_MSFontService,sans-serif" font-weight="400" font-size="33.72" transform="translate(120.791 631)">Extracted and preprocessed</text><text font-family="Calibri,Calibri_MSFontService,sans-serif" font-weight="400" font-size="33.72" transform="translate(161.071 671)">sparse measurements</text><rect x="1695" y="600" width="414" height="82" stroke="#275317" stroke-width="2" stroke-miterlimit="8" fill="#D9F2D0"/><text font-family="Calibri,Calibri_MSFontService,sans-serif" font-weight="400" font-size="33.72" transform="translate(1750.53 653)">Overall predicted field</text><rect x="876" y="5" width="413" height="81" stroke="#275317" stroke-width="2" stroke-miterlimit="8" fill="#D9F2D0"/><text font-family="Calibri,Calibri_MSFontService,sans-serif" font-weight="400" font-size="33.72" transform="translate(988.205 37)">Auto</text><text font-family="Calibri,Calibri_MSFontService,sans-serif" font-weight="400" font-size="33.72" transform="translate(1054.21 37)">-</text><text font-family="Calibri,Calibri_MSFontService,sans-serif" font-weight="400" font-size="33.72" transform="translate(1064.55 37)">Encoder</text><text font-family="Calibri,Calibri_MSFontService,sans-serif" font-weight="400" font-size="33.72" transform="translate(987.779 77)">(Latent size 2)</text><rect x="876" y="746" width="413" height="145" stroke="#275317" stroke-width="2" stroke-miterlimit="8" fill="#D9F2D0"/><text font-family="Calibri,Calibri_MSFontService,sans-serif" font-weight="400" font-size="33.72" transform="translate(965.455 810)">Latent prediction</text><text font-family="Calibri,Calibri_MSFontService,sans-serif" font-weight="400" font-size="33.72" transform="translate(977.589 850)">using CNN/TCN</text><rect x="1695" y="7" width="414" height="81" stroke="#80350E" stroke-width="2" stroke-miterlimit="8" fill="#FBE3D6"/><text font-family="Calibri,Calibri_MSFontService,sans-serif" font-weight="400" font-size="33.72" transform="translate(1769.21 39)">Large</text><text font-family="Calibri,Calibri_MSFontService,sans-serif" font-weight="400" font-size="33.72" transform="translate(1843.3 39)">-</text><text font-family="Calibri,Calibri_MSFontService,sans-serif" font-weight="400" font-size="33.72" transform="translate(1853.64 39)">scale velocity</text><text font-family="Calibri,Calibri_MSFontService,sans-serif" font-weight="400" font-size="33.72" transform="translate(1793.53 79)">fluctuation field</text><rect x="101" y="1035" width="284" height="49" stroke="#80350E" stroke-width="2" stroke-miterlimit="8" fill="#FBE3D6"/><text font-family="Calibri,Calibri_MSFontService,sans-serif" font-weight="400" font-size="33.72" transform="translate(197.414 1072)">Frozen</text><rect x="101" y="976" width="284" height="49" stroke="#163E64" stroke-width="2" stroke-miterlimit="8" fill="#DCEAF7"/><text font-family="Calibri,Calibri_MSFontService,sans-serif" font-weight="400" font-size="33.72" transform="translate(206.621 1012)">Input</text><rect x="101" y="1096" width="287" height="49" stroke="#275317" stroke-width="2" stroke-miterlimit="8" fill="#D9F2D0"/><text font-family="Calibri,Calibri_MSFontService,sans-serif" font-weight="400" font-size="33.72" transform="translate(113.468 1132)">Training/Prediction</text><path d="M1831.52 1092.17 2103.1 1094.51 2103.06 1099.18 1831.48 1096.83ZM2100.81 1089.82 2114.75 1096.94 2100.69 1103.82Z" fill="#C00000"/><path d="M1831.5 1029.17 2104.26 1029.17 2104.26 1033.83 1831.5 1033.83ZM2101.92 1024.5 2115.92 1031.5 2101.92 1038.5Z" fill="#156082"/><text font-family="Calibri,Calibri_MSFontService,sans-serif" font-weight="400" font-size="33.72" transform="translate(1915.28 1021)">Forward</text><text font-family="Calibri,Calibri_MSFontService,sans-serif" font-weight="400" font-size="33.72" transform="translate(1904.54 1082)">Backward</text><text font-family="Calibri,Calibri_MSFontService,sans-serif" font-weight="400" font-size="33.72" transform="translate(319.948 483)">Extraction</text><path d="M1695.42 820.833 1301.17 820.833 1301.17 816.167 1695.42 816.167ZM1303.5 825.5 1289.5 818.5 1303.5 811.5Z" fill="#C00000"/><path d="M1289 255 1474.3 255" stroke="#156082" stroke-width="4" stroke-miterlimit="8" fill="none" fill-rule="evenodd"/><path d="M1475 254 1475 784.46" stroke="#156082" stroke-width="4" stroke-miterlimit="8" fill="none" fill-rule="evenodd"/><path d="M1473.5 781.167 1684.64 781.167 1684.64 785.833 1473.5 785.833ZM1682.3 776.5 1696.3 783.5 1682.3 790.5Z" fill="#156082"/></g></svg>