<svg width="1968" height="970" xmlns="http://www.w3.org/2000/svg" xmlns:xlink="http://www.w3.org/1999/xlink" overflow="hidden"><defs><clipPath id="clip0"><rect x="0" y="0" width="1968" height="970"/></clipPath><clipPath id="clip1"><rect x="1482" y="282" width="168" height="240"/></clipPath><clipPath id="clip2"><rect x="1482" y="282" width="168" height="240"/></clipPath><clipPath id="clip3"><rect x="1482" y="282" width="168" height="240"/></clipPath><clipPath id="clip4"><rect x="1714" y="282" width="168" height="240"/></clipPath><clipPath id="clip5"><rect x="1714" y="282" width="168" height="240"/></clipPath><clipPath id="clip6"><rect x="1714" y="282" width="168" height="240"/></clipPath></defs><g clip-path="url(#clip0)"><rect x="0" y="0" width="1968" height="970.333" fill="#FFFFFF"/><rect x="1513.5" y="600.706" width="71" height="71.0244" stroke="#000000" stroke-width="1.33333" stroke-linejoin="round" stroke-miterlimit="10" fill="#999999"/><rect x="1181.5" y="215.574" width="261" height="456.157" stroke="#000000" stroke-width="1.33333" stroke-linejoin="round" stroke-miterlimit="10" fill="#999999"/><path d="M1682 576.198 1729.33 553.19 1753 576.198Z" fill="#999999" fill-rule="evenodd"/><rect x="1682" y="576.198" width="71" height="95.0327" fill="#999999"/><rect x="12" y="671.231" width="1944" height="24.0082" stroke="#000000" stroke-width="2" stroke-linejoin="round" stroke-miterlimit="10" fill="#4472C4"/><path d="M12.5001 671.731 1956.5 671.731" stroke="#000000" stroke-width="2.66667" stroke-linejoin="round" stroke-miterlimit="10" fill="none" fill-rule="evenodd"/><path d="M1956.5 671.731 1956.5 695.739" stroke="#000000" stroke-width="2.66667" stroke-linejoin="round" stroke-miterlimit="10" fill="none" fill-rule="evenodd"/><path d="M12.5001 695.739 1956.5 695.739" stroke="#000000" stroke-width="2.66667" stroke-linejoin="round" stroke-miterlimit="10" fill="none" fill-rule="evenodd"/><path d="M0 17 47.3333 0 71 17Z" fill="#999999" fill-rule="evenodd" transform="matrix(-1 0 0 1.00034 1913 559.192)"/><rect x="1842" y="576.198" width="71" height="95.0327" fill="#999999"/><path d="M1750.67 672.583 1679.5 671.731" stroke="#000000" stroke-width="1.33333" stroke-miterlimit="8" fill="none" fill-rule="evenodd"/><path d="M0 0 71.0626 0.538478" stroke="#000000" stroke-width="1.33333" stroke-miterlimit="8" fill="none" fill-rule="evenodd" transform="matrix(-1 0 0 1.00034 1912.56 671.731)"/><path d="M1682.5 576.698 1682.5 670.915" stroke="#000000" stroke-width="1.33333" stroke-miterlimit="8" fill="none" fill-rule="evenodd"/><path d="M0 0 0.0859842 94.8964" stroke="#000000" stroke-width="1.33333" stroke-miterlimit="8" fill="none" fill-rule="evenodd" transform="matrix(-1 0 0 1.00034 1753.59 576.698)"/><path d="M1841.5 576.698 1841.5 670.915" stroke="#000000" stroke-width="1.33333" stroke-miterlimit="8" fill="none" fill-rule="evenodd"/><path d="M0 0 0.0859842 94.8964" stroke="#000000" stroke-width="1.33333" stroke-miterlimit="8" fill="none" fill-rule="evenodd" transform="matrix(-1 0 0 1.00034 1913.59 576.698)"/><path d="M1865.5 559.692 1914.3 576.78" stroke="#000000" stroke-width="1.33333" stroke-miterlimit="8" fill="none" fill-rule="evenodd"/><path d="M0 0 24.7101 17.3322" stroke="#000000" stroke-width="1.33333" stroke-miterlimit="8" fill="none" fill-rule="evenodd" transform="matrix(1 0 0 -1.00034 1841.5 577.031)"/><path d="M0 0 47.5167 23.5705" stroke="#000000" stroke-width="1.33333" stroke-miterlimit="8" fill="none" fill-rule="evenodd" transform="matrix(1 0 0 -1.00034 1681.5 577.269)"/><path d="M1753.47 577.996 1729.5 553.69" stroke="#000000" stroke-width="1.33333" stroke-miterlimit="8" fill="none" fill-rule="evenodd"/><path d="M1721.07 557.378C1747.45 520.323 1792.28 506.983 1821.2 527.584" stroke="#000000" stroke-width="1.33364" stroke-miterlimit="8" stroke-dasharray="5.33455 4.00091" fill="none" fill-rule="evenodd"/><path d="M1721.53 556.451C1738.52 545.158 1764.62 554.552 1779.81 577.433" stroke="#000000" stroke-width="1.33347" stroke-miterlimit="8" stroke-dasharray="5.3339 4.00042" fill="none" fill-rule="evenodd"/><path d="M1750 538.81C1750 543.657 1758.02 547.89 1769.5 549.101L1769.5 545.85 1776 552.69 1769.5 558.855 1769.5 555.604C1758.02 554.392 1750 550.159 1750 545.312Z" fill="#FF0000" fill-rule="evenodd"/><path d="M1776 534.684C1764.7 534.684 1754.7 537.665 1751.25 542.061 1746.85 536.473 1754.38 530.487 1768.05 528.691 1770.62 528.353 1773.3 528.182 1776 528.182Z" fill="#CD0000" fill-rule="evenodd"/><path d="M1771 561.943 1777.25 555.347 1777.25 558.474C1785.71 557.529 1792.41 554.744 1794.93 551.127 1798.92 556.846 1791.44 562.881 1778.23 564.608 1777.9 564.65 1777.58 564.689 1777.25 564.726L1777.25 567.852Z" fill="#FF0000" fill-rule="evenodd"/><path d="M1796 554.253C1796 548.279 1784.81 543.437 1771 543.437L1771 537.185C1784.81 537.185 1796 542.027 1796 548.001Z" fill="#CD0000" fill-rule="evenodd"/><path d="M1803 547C1803 551.933 1810.71 556.24 1821.75 557.473L1821.75 554.347 1828 560.943 1821.75 566.852 1821.75 563.725C1810.71 562.492 1803 558.185 1803 553.253Z" fill="#FF0000" fill-rule="evenodd"/><path d="M1828 542.436C1816.98 542.436 1807.25 545.561 1804.07 550.127 1800.08 544.408 1807.56 538.372 1820.77 536.646 1823.12 536.34 1825.55 536.184 1828 536.184Z" fill="#CD0000" fill-rule="evenodd"/><path d="M1824 568.946 1830.25 562.366 1830.25 565.492C1838.58 564.604 1845.22 562.012 1847.82 558.63 1852.01 564.059 1844.73 569.86 1831.58 571.587 1831.14 571.644 1830.7 571.697 1830.25 571.744L1830.25 574.87Z" fill="#FF0000" fill-rule="evenodd"/><path d="M1849 561.756C1849 556.058 1837.81 551.44 1824 551.44L1824 545.187C1837.81 545.187 1849 549.806 1849 555.503Z" fill="#CD0000" fill-rule="evenodd"/><g clip-path="url(#clip1)"><g clip-path="url(#clip2)"><g clip-path="url(#clip3)"><path d="M97.3358 41.3267 97.3358 43.5914C85.4022 45.4371 71.7491 48.9162 61.4063 56.578 50.5267 64.6373 52.4329 74.768 63.2975 80.96 60.8995 65.2938 86.4398 56.8703 96.3902 59.4448 88.9612 65.0366 60.6311 73.7426 81.2604 86.1939 83.3923 87.4801 85.5744 88.2305 87.8804 88.8865 80.1046 75.7244 100.26 71.9247 107.736 70.7684 104.517 75.5582 94.2222 74.7342 93.3475 82.137 92.4976 89.3403 103.626 92.1959 107.736 93.1208 120.09 95.9017 135.185 95.9651 147.447 92.3972 151.808 91.1287 163.527 86.5801 160.603 78.8009 159.263 75.2358 155.487 73.2433 153.12 70.7684 161.01 69.3709 170.739 76.1129 168.248 86.6218 170.243 85.5777 172.114 84.5153 173.888 82.9714 191.578 67.5721 162.583 61.9108 157.848 53.783 170.085 55.6756 190.573 60.5185 190.94 78.6953 192.972 76.5235 195.177 74.4442 196.8 71.7979 207.395 54.5301 179.902 43.4886 170.139 40.3699 166.671 39.262 162.941 39.2189 160.684 35.6648 175.088 37.0281 191.615 41.4772 204.178 50.2461 210.123 54.3954 214.539 61.0685 211.635 70.208 209.024 78.4269 203.004 83.8433 196.613 86.8349 180.708 94.2823 162.587 98.1402 145.557 99.0332 119.738 100.388 92.995 99.4039 68.025 90.8218 59.4983 87.8912 54.3442 85.1173 47.9452 77.1636 40.7167 68.178 46.1184 58.2448 53.5976 53.5324 67.5965 44.7109 81.6006 42.1359 97.3358 41.3267L97.3358 41.3267 97.3358 41.3267Z" transform="matrix(1 0 0 1.51629 1437.46 228.019)"/><path d="M113.171 85.8119C112.733 83.5307 125.284 77.296 120.898 80.4068 108.93 88.8945 123.349 88.1873 127.351 88.6646L133.605 88.7636C140.353 88.7331 155.376 77.4503 151.566 82.0164 149.418 84.5913 140.141 90.2484 137.443 90.7533 130.702 92.4967 114.271 91.5501 113.316 86.5726Z" transform="matrix(1 0 0 1.51629 1437.46 228.019)"/><path d="M207.715 81.9929C205.572 96.592 186.86 105.73 176.198 108.465 149.428 115.332 125.404 108.367 98.5963 104.221 107.353 99.8197 142.51 105.785 151.826 105.297 178.844 103.879 185.067 100.858 207.715 81.9929Z" transform="matrix(1 0 0 1.51629 1437.46 228.019)"/><path d="M203.232 102.475C209.55 98.4424 194.602 113.872 171.724 122.857 145.204 127.039 113.723 124.187 88.628 114.061 78.723 110.063 70.6294 100.906 67.3948 87.871 75.2086 91.8064 76.7915 100.749 84.8461 104.388 120.979 120.71 168.844 124.425 203.232 102.475Z" transform="matrix(1 0 0 1.51629 1437.46 228.019)"/><path d="M194.722 119.461C184.718 132.314 168.529 136.505 160.198 137.79 134.127 141.813 95.8398 134.56 74.6436 109.749 82.4542 113.511 91.4291 119.778 100.277 123.308 128.172 134.436 167.824 137.129 194.722 119.461Z" transform="matrix(1 0 0 1.51629 1437.46 228.019)"/><path d="M182.431 128.52 181.486 129.652Z" transform="matrix(1 0 0 1.51629 1437.46 228.019)"/><path d="M184.743 138.594C174.389 156.95 100.978 150.244 90.261 132.209 97.8835 135.1 120.746 142.978 130.347 143.57 145.253 146.336 175.202 143.578 184.743 138.594Z" transform="matrix(1 0 0 1.51629 1437.46 228.019)"/><path d="M114.963 154.632C132.77 159.73 165.128 155.527 179.243 153.432 167.064 161.773 132.655 163.724 119.713 160.296 113.69 158.701 102.53 157.721 87.7725 144.132 95.8947 146.872 109.011 153.604 114.963 154.632Z" transform="matrix(1 0 0 1.51629 1437.46 228.019)"/><path d="M89.4365 158.414C99.4241 168.402 152.812 174.454 177.16 164.493 160.081 178.972 134.416 174.234 122.725 173.314 118.19 172.963 97.8558 169.083 89.4365 158.414Z" transform="matrix(1 0 0 1.51629 1437.46 228.019)"/><path d="M173.223 178.741C170.106 184.901 117.889 185.662 117.401 193.334 111.657 189.201 91.1353 177.064 89.0705 169.321 107.224 184.72 136.417 184.948 173.223 178.741Z" transform="matrix(1 0 0 1.51629 1437.46 228.019)"/></g></g></g><g clip-path="url(#clip4)"><g clip-path="url(#clip5)"><g clip-path="url(#clip6)"><path d="M97.3358 41.3267 97.3358 43.5914C85.4022 45.4371 71.7491 48.9162 61.4063 56.578 50.5267 64.6373 52.4329 74.768 63.2975 80.96 60.8995 65.2938 86.4398 56.8703 96.3902 59.4448 88.9612 65.0366 60.6311 73.7426 81.2604 86.1939 83.3923 87.4801 85.5744 88.2305 87.8804 88.8865 80.1046 75.7244 100.26 71.9247 107.736 70.7684 104.517 75.5582 94.2222 74.7342 93.3475 82.137 92.4976 89.3403 103.626 92.1959 107.736 93.1208 120.09 95.9017 135.185 95.9651 147.447 92.3972 151.808 91.1287 163.527 86.5801 160.603 78.8009 159.263 75.2358 155.487 73.2433 153.12 70.7684 161.01 69.3709 170.739 76.1129 168.248 86.6218 170.243 85.5777 172.114 84.5153 173.888 82.9714 191.578 67.5721 162.583 61.9108 157.848 53.783 170.085 55.6756 190.573 60.5185 190.94 78.6953 192.972 76.5235 195.177 74.4442 196.8 71.7979 207.395 54.5301 179.902 43.4886 170.139 40.3699 166.671 39.262 162.941 39.2189 160.684 35.6648 175.088 37.0281 191.615 41.4772 204.178 50.2461 210.123 54.3954 214.539 61.0685 211.635 70.208 209.024 78.4269 203.004 83.8433 196.613 86.8349 180.708 94.2823 162.587 98.1402 145.557 99.0332 119.738 100.388 92.995 99.4039 68.025 90.8218 59.4983 87.8912 54.3442 85.1173 47.9452 77.1636 40.7167 68.178 46.1184 58.2448 53.5976 53.5324 67.5965 44.7109 81.6006 42.1359 97.3358 41.3267L97.3358 41.3267 97.3358 41.3267Z" transform="matrix(-1 0 0 1.51629 1926.54 228.019)"/><path d="M113.171 85.8119C112.733 83.5307 125.284 77.296 120.898 80.4068 108.93 88.8945 123.349 88.1873 127.351 88.6646L133.605 88.7636C140.353 88.7331 155.376 77.4503 151.566 82.0164 149.418 84.5913 140.141 90.2484 137.443 90.7533 130.702 92.4967 114.271 91.5501 113.316 86.5726Z" transform="matrix(-1 0 0 1.51629 1926.54 228.019)"/><path d="M207.715 81.9929C205.572 96.592 186.86 105.73 176.198 108.465 149.428 115.332 125.404 108.367 98.5963 104.221 107.353 99.8197 142.51 105.785 151.826 105.297 178.844 103.879 185.067 100.858 207.715 81.9929Z" transform="matrix(-1 0 0 1.51629 1926.54 228.019)"/><path d="M203.232 102.475C209.55 98.4424 194.602 113.872 171.724 122.857 145.204 127.039 113.723 124.187 88.628 114.061 78.723 110.063 70.6294 100.906 67.3948 87.871 75.2086 91.8064 76.7915 100.749 84.8461 104.388 120.979 120.71 168.844 124.425 203.232 102.475Z" transform="matrix(-1 0 0 1.51629 1926.54 228.019)"/><path d="M194.722 119.461C184.718 132.314 168.529 136.505 160.198 137.79 134.127 141.813 95.8398 134.56 74.6436 109.749 82.4542 113.511 91.4291 119.778 100.277 123.308 128.172 134.436 167.824 137.129 194.722 119.461Z" transform="matrix(-1 0 0 1.51629 1926.54 228.019)"/><path d="M182.431 128.52 181.486 129.652Z" transform="matrix(-1 0 0 1.51629 1926.54 228.019)"/><path d="M184.743 138.594C174.389 156.95 100.978 150.244 90.261 132.209 97.8835 135.1 120.746 142.978 130.347 143.57 145.253 146.336 175.202 143.578 184.743 138.594Z" transform="matrix(-1 0 0 1.51629 1926.54 228.019)"/><path d="M114.963 154.632C132.77 159.73 165.128 155.527 179.243 153.432 167.064 161.773 132.655 163.724 119.713 160.296 113.69 158.701 102.53 157.721 87.7725 144.132 95.8947 146.872 109.011 153.604 114.963 154.632Z" transform="matrix(-1 0 0 1.51629 1926.54 228.019)"/><path d="M89.4365 158.414C99.4241 168.402 152.812 174.454 177.16 164.493 160.081 178.972 134.416 174.234 122.725 173.314 118.19 172.963 97.8558 169.083 89.4365 158.414Z" transform="matrix(-1 0 0 1.51629 1926.54 228.019)"/><path d="M173.223 178.741C170.106 184.901 117.889 185.662 117.401 193.334 111.657 189.201 91.1353 177.064 89.0705 169.321 107.224 184.72 136.417 184.948 173.223 178.741Z" transform="matrix(-1 0 0 1.51629 1926.54 228.019)"/></g></g></g><rect x="319.5" y="600.706" width="72" height="71.0244" stroke="#000000" stroke-width="1.33333" stroke-linejoin="round" stroke-miterlimit="10" fill="#999999"/><rect x="949.5" y="588.702" width="186" height="83.0285" stroke="#000000" stroke-width="1.33333" stroke-linejoin="round" stroke-miterlimit="10" fill="#999999"/><rect x="779.5" y="600.706" width="95" height="71.0244" stroke="#000000" stroke-width="1.33333" stroke-linejoin="round" stroke-miterlimit="10" fill="#999999"/><path d="M465 576.198 512.333 553.19 536 576.198Z" fill="#999999" fill-rule="evenodd"/><rect x="465" y="576.198" width="71" height="95.0327" fill="#999999"/><path d="M0 17 48 0 72 17Z" fill="#999999" fill-rule="evenodd" transform="matrix(-1 0 0 1.00034 696 559.192)"/><rect x="624" y="576.198" width="72" height="95.0327" fill="#999999"/><path d="M532.672 672.583 461.5 671.731" stroke="#000000" stroke-width="1.33333" stroke-miterlimit="8" fill="none" fill-rule="evenodd"/><path d="M0 0 71.0626 0.538478" stroke="#000000" stroke-width="1.33333" stroke-miterlimit="8" fill="none" fill-rule="evenodd" transform="matrix(-1 0 0 1.00034 694.563 671.731)"/><path d="M464.5 576.698 464.5 670.915" stroke="#000000" stroke-width="1.33333" stroke-miterlimit="8" fill="none" fill-rule="evenodd"/><path d="M0 0 0.0859842 94.8964" stroke="#000000" stroke-width="1.33333" stroke-miterlimit="8" fill="none" fill-rule="evenodd" transform="matrix(-1 0 0 1.00034 536.586 576.698)"/><path d="M624.5 576.698 624.5 670.915" stroke="#000000" stroke-width="1.33333" stroke-miterlimit="8" fill="none" fill-rule="evenodd"/><path d="M0 0 0.0859842 94.8964" stroke="#000000" stroke-width="1.33333" stroke-miterlimit="8" fill="none" fill-rule="evenodd" transform="matrix(-1 0 0 1.00034 695.586 576.698)"/><path d="M647.5 559.692 696.297 576.78" stroke="#000000" stroke-width="1.33333" stroke-miterlimit="8" fill="none" fill-rule="evenodd"/><path d="M0 0 24.7101 17.3322" stroke="#000000" stroke-width="1.33333" stroke-miterlimit="8" fill="none" fill-rule="evenodd" transform="matrix(1 0 0 -1.00034 623.5 577.031)"/><path d="M0 0 47.5167 23.5705" stroke="#000000" stroke-width="1.33333" stroke-miterlimit="8" fill="none" fill-rule="evenodd" transform="matrix(1 0 0 -1.00034 463.5 577.269)"/><path d="M536.469 577.996 512.5 553.69" stroke="#000000" stroke-width="1.33333" stroke-miterlimit="8" fill="none" fill-rule="evenodd"/><path d="M543.337 559.159C532.816 533.691 658.161 457.707 823.301 389.444 988.442 321.18 1130.84 286.487 1141.36 311.955 1151.88 337.422 1026.54 413.406 861.398 481.67 696.258 549.933 553.857 584.626 543.337 559.159Z" stroke="#000000" stroke-width="1.3334" stroke-miterlimit="8" fill="#910E26" fill-rule="evenodd"/><path d="M505.607 556.205C531.985 519.149 576.813 505.81 605.734 526.411" stroke="#000000" stroke-width="1.33364" stroke-miterlimit="8" stroke-dasharray="5.33455 4.00091" fill="none" fill-rule="evenodd"/><path d="M503.928 555.918C520.924 544.625 547.018 554.019 562.21 576.9" stroke="#000000" stroke-width="1.33347" stroke-miterlimit="8" stroke-dasharray="5.3339 4.00042" fill="none" fill-rule="evenodd"/><path d="M533 538.998C533 543.93 540.712 548.237 551.75 549.471L551.75 546.344 558 552.94 551.75 558.849 551.75 555.723C540.712 554.49 533 550.182 533 545.25Z" fill="#FF0000" fill-rule="evenodd"/><path d="M558 534.434C546.976 534.434 537.253 537.558 534.067 542.124 530.076 536.405 537.557 530.37 550.775 528.643 553.118 528.337 555.552 528.182 558 528.182Z" fill="#CD0000" fill-rule="evenodd"/><path d="M553 561.693 559.5 554.853 559.5 558.104C568.136 557.193 575.026 554.536 577.754 551.064 582.146 556.653 574.624 562.639 560.953 564.435 560.473 564.498 559.988 564.555 559.5 564.607L559.5 567.858Z" fill="#FF0000" fill-rule="evenodd"/><path d="M579 554.315C579 548.445 567.359 543.687 553 543.687L553 537.185C567.359 537.185 579 541.943 579 547.813Z" fill="#CD0000" fill-rule="evenodd"/><path d="M585 546.813C585 551.66 593.021 555.892 604.5 557.104L604.5 553.853 611 560.693 604.5 566.857 604.5 563.606C593.021 562.395 585 558.162 585 553.315Z" fill="#FF0000" fill-rule="evenodd"/><path d="M611 542.687C599.705 542.687 589.701 545.668 586.246 550.064 581.854 544.475 589.376 538.489 603.047 536.694 605.617 536.356 608.3 536.184 611 536.184Z" fill="#CD0000" fill-rule="evenodd"/><path d="M606 568.946 612.25 562.366 612.25 565.492C620.579 564.604 627.218 562.012 629.825 558.63 634.008 564.059 626.734 569.86 613.576 571.587 613.137 571.644 612.695 571.697 612.25 571.744L612.25 574.87Z" fill="#FF0000" fill-rule="evenodd"/><path d="M631 561.756C631 556.058 619.807 551.44 606 551.44L606 545.187C619.807 545.187 631 549.806 631 555.503Z" fill="#CD0000" fill-rule="evenodd"/><path d="M24.5001 234.581 149 234.581 149 222.577 190.5 246.585 149 270.593 149 258.589 24.5001 258.589Z" stroke="#000000" stroke-width="1.33333" stroke-linejoin="round" stroke-miterlimit="10" fill="#CCCCCC" fill-rule="evenodd"/><path d="M24.5001 327.363 131 327.363 131 315.609 166.5 339.117 131 362.625 131 350.871 24.5001 350.871Z" stroke="#000000" stroke-width="1.33333" stroke-linejoin="round" stroke-miterlimit="10" fill="#CCCCCC" fill-rule="evenodd"/><path d="M24.5001 418.644 95.7501 418.644 95.7501 406.64 119.5 430.648 95.7501 454.656 95.7501 442.652 24.5001 442.652Z" stroke="#000000" stroke-width="1.33333" stroke-linejoin="round" stroke-miterlimit="10" fill="#CCCCCC" fill-rule="evenodd"/><path d="M24.5001 143.299 185.75 143.299 185.75 131.545 239.5 155.053 185.75 178.561 185.75 166.807 24.5001 166.807Z" stroke="#000000" stroke-width="1.33333" stroke-linejoin="round" stroke-miterlimit="10" fill="#CCCCCC" fill-rule="evenodd"/><path d="M24.5001 509.675 60.5001 509.675 60.5001 497.671 72.5001 521.679 60.5001 545.688 60.5001 533.683 24.5001 533.683Z" stroke="#000000" stroke-width="1.33333" stroke-linejoin="round" stroke-miterlimit="10" fill="#CCCCCC" fill-rule="evenodd"/><path d="M96.4303 559.159C85.9102 533.691 211.255 457.707 376.395 389.444 541.535 321.18 683.936 286.487 694.457 311.955 704.977 337.422 579.632 413.406 414.492 481.67 249.352 549.933 106.951 584.626 96.4303 559.159Z" stroke="#000000" stroke-width="1.3334" stroke-miterlimit="8" fill="#313691" fill-rule="evenodd"/><path d="M886.075 235.243 949.407 343.142 948.257 343.818 884.925 235.919ZM949.472 334.213 949.502 344.621 940.43 339.524C940.109 339.343 939.995 338.937 940.176 338.616 940.356 338.295 940.762 338.181 941.083 338.361L949.158 342.898 948.165 343.482 948.139 334.217C948.138 333.849 948.435 333.549 948.803 333.548 949.172 333.547 949.471 333.845 949.472 334.213Z"/><path d="M399.071 235.236 468.389 350.146 467.247 350.835 397.929 235.926ZM468.347 341.217 468.502 351.624 459.37 346.636C459.047 346.459 458.928 346.054 459.104 345.731 459.281 345.408 459.686 345.289 460.009 345.465L468.138 349.905 467.151 350.5 467.014 341.236C467.008 340.868 467.302 340.565 467.67 340.56 468.039 340.554 468.341 340.848 468.347 341.217Z"/><text font-family="Arial,Arial_MSFontService,sans-serif" font-weight="400" font-size="42.6813" transform="matrix(1 0 0 1.00034 258.864 168)">Large</text><text font-family="Arial,Arial_MSFontService,sans-serif" font-weight="400" font-size="42.6813" transform="matrix(1 0 0 1.00034 367.977 168)">-</text><text font-family="Arial,Arial_MSFontService,sans-serif" font-weight="400" font-size="42.6813" transform="matrix(1 0 0 1.00034 382.184 168)">scale low</text><text font-family="Arial,Arial_MSFontService,sans-serif" font-weight="400" font-size="42.6813" transform="matrix(1 0 0 1.00034 258.864 217)">momentum region</text><text font-family="Arial,Arial_MSFontService,sans-serif" font-weight="400" font-size="42.6813" transform="matrix(1 0 0 1.00034 677.708 167)">Large</text><text font-family="Arial,Arial_MSFontService,sans-serif" font-weight="400" font-size="42.6813" transform="matrix(1 0 0 1.00034 786.821 167)">-</text><text font-family="Arial,Arial_MSFontService,sans-serif" font-weight="400" font-size="42.6813" transform="matrix(1 0 0 1.00034 801.028 167)">scale high</text><text font-family="Arial,Arial_MSFontService,sans-serif" font-weight="400" font-size="42.6813" transform="matrix(1 0 0 1.00034 677.708 216)">momentum region</text><path d="M28 576.198 75.3333 553.19 99 576.198Z" fill="#999999" fill-rule="evenodd"/><rect x="28" y="576.198" width="71" height="95.0327" fill="#999999"/><path d="M0 17 47.3333 0 71 17Z" fill="#999999" fill-rule="evenodd" transform="matrix(-1 0 0 1.00034 259 559.192)"/><rect x="188" y="576.198" width="71" height="95.0327" fill="#999999"/><path d="M95.6723 672.583 24.5001 671.731" stroke="#000000" stroke-width="1.33333" stroke-miterlimit="8" fill="none" fill-rule="evenodd"/><path d="M0 0 71.0626 0.538478" stroke="#000000" stroke-width="1.33333" stroke-miterlimit="8" fill="none" fill-rule="evenodd" transform="matrix(-1 0 0 1.00034 257.563 671.731)"/><path d="M27.5001 576.698 27.5002 670.915" stroke="#000000" stroke-width="1.33333" stroke-miterlimit="8" fill="none" fill-rule="evenodd"/><path d="M0 0 0.0859842 94.8964" stroke="#000000" stroke-width="1.33333" stroke-miterlimit="8" fill="none" fill-rule="evenodd" transform="matrix(-1 0 0 1.00034 99.586 576.698)"/><path d="M187.5 576.698 187.5 670.915" stroke="#000000" stroke-width="1.33333" stroke-miterlimit="8" fill="none" fill-rule="evenodd"/><path d="M0 0 0.0859842 94.8964" stroke="#000000" stroke-width="1.33333" stroke-miterlimit="8" fill="none" fill-rule="evenodd" transform="matrix(-1 0 0 1.00034 259.586 576.698)"/><path d="M210.5 559.692 259.297 576.78" stroke="#000000" stroke-width="1.33333" stroke-miterlimit="8" fill="none" fill-rule="evenodd"/><path d="M0 0 24.7101 17.3322" stroke="#000000" stroke-width="1.33333" stroke-miterlimit="8" fill="none" fill-rule="evenodd" transform="matrix(1 0 0 -1.00034 186.5 577.031)"/><path d="M0 0 47.5167 23.5705" stroke="#000000" stroke-width="1.33333" stroke-miterlimit="8" fill="none" fill-rule="evenodd" transform="matrix(1 0 0 -1.00034 27.5001 577.269)"/><path d="M99.4695 577.996 75.5 553.69" stroke="#000000" stroke-width="1.33333" stroke-miterlimit="8" fill="none" fill-rule="evenodd"/><path d="M67.1278 556.451C84.1242 545.158 110.218 554.552 125.41 577.433" stroke="#000000" stroke-width="1.33347" stroke-miterlimit="8" stroke-dasharray="5.3339 4.00042" fill="none" fill-rule="evenodd"/><path d="M96 538.998C96 543.93 103.712 548.237 114.75 549.471L114.75 546.344 121 552.94 114.75 558.849 114.75 555.723C103.712 554.49 96 550.182 96 545.25Z" fill="#5B9BD5" fill-rule="evenodd"/><path d="M121 534.434C109.976 534.434 100.253 537.558 97.0669 542.124 93.0764 536.405 100.557 530.37 113.775 528.643 116.118 528.337 118.552 528.182 121 528.182Z" fill="#497DAB" fill-rule="evenodd"/><path d="M117 561.943 123.25 555.347 123.25 558.474C131.706 557.529 138.409 554.744 140.933 551.127 144.924 556.846 137.443 562.881 124.225 564.608 123.902 564.65 123.577 564.689 123.25 564.726L123.25 567.852Z" fill="#5B9BD5" fill-rule="evenodd"/><path d="M142 554.253C142 548.279 130.807 543.437 117 543.437L117 537.185C130.807 537.185 142 542.027 142 548.001Z" fill="#497DAB" fill-rule="evenodd"/><path d="M149 547C149 551.933 156.712 556.24 167.75 557.473L167.75 554.347 174 560.943 167.75 566.852 167.75 563.725C156.712 562.492 149 558.185 149 553.253Z" fill="#5B9BD5" fill-rule="evenodd"/><path d="M174 542.436C162.976 542.436 153.253 545.561 150.067 550.127 146.076 544.408 153.557 538.372 166.775 536.646 169.118 536.34 171.552 536.184 174 536.184Z" fill="#497DAB" fill-rule="evenodd"/><path d="M169 568.695 175.5 561.872 175.5 565.123C183.993 564.268 190.808 561.803 193.624 558.567 198.233 563.865 190.945 569.615 177.346 571.411 176.737 571.491 176.122 571.562 175.5 571.625L175.5 574.876Z" fill="#5B9BD5" fill-rule="evenodd"/><path d="M195 561.818C195 556.224 183.359 551.69 169 551.69L169 545.187C183.359 545.187 195 549.722 195 555.316Z" fill="#497DAB" fill-rule="evenodd"/><path d="M68.4074 554.711C94.7854 517.655 139.613 504.316 168.534 524.917" stroke="#000000" stroke-width="1.33364" stroke-miterlimit="8" stroke-dasharray="5.33455 4.00091" fill="none" fill-rule="evenodd"/><path d="M1700.04 235.187 1732.26 279.137 1731.18 279.926 1698.96 235.975ZM1731.41 270.248 1732.5 280.599 1722.96 276.45C1722.62 276.304 1722.47 275.911 1722.61 275.573 1722.76 275.235 1723.15 275.08 1723.49 275.227L1731.99 278.92 1731.06 279.601 1730.09 270.387C1730.05 270.021 1730.32 269.693 1730.68 269.654 1731.05 269.616 1731.38 269.882 1731.41 270.248Z"/><text font-family="Arial,Arial_MSFontService,sans-serif" font-weight="400" font-size="42.6813" transform="matrix(1 0 0 1.00034 1511.96 167)">Large</text><text font-family="Arial,Arial_MSFontService,sans-serif" font-weight="400" font-size="42.6813" transform="matrix(1 0 0 1.00034 1621.07 167)">-</text><text font-family="Arial,Arial_MSFontService,sans-serif" font-weight="400" font-size="42.6813" transform="matrix(1 0 0 1.00034 1635.28 167)">scale tall building</text><text font-family="Arial,Arial_MSFontService,sans-serif" font-weight="400" font-size="42.6813" transform="matrix(1 0 0 1.00034 1511.96 216)">wake eddies</text><text font-family="Arial,Arial_MSFontService,sans-serif" font-weight="400" font-size="42.6813" transform="matrix(1 0 0 1.00034 511.947 779)">Amplified small</text><text font-family="Arial,Arial_MSFontService,sans-serif" font-weight="400" font-size="42.6813" transform="matrix(1 0 0 1.00034 798.833 779)">-</text><text font-family="Arial,Arial_MSFontService,sans-serif" font-weight="400" font-size="42.6813" transform="matrix(1 0 0 1.00034 813.04 779)">scale</text><text font-family="Arial,Arial_MSFontService,sans-serif" font-weight="400" font-size="42.6813" transform="matrix(1 0 0 1.00034 511.947 828)">structures</text><path d="M665.93 729.097 573.616 577.173 574.755 576.48 667.07 728.404ZM573.687 586.102 573.498 575.695 582.646 580.654C582.97 580.829 583.09 581.234 582.915 581.558 582.74 581.882 582.335 582.002 582.011 581.826L573.868 577.413 574.852 576.814 575.02 586.078C575.026 586.446 574.733 586.75 574.365 586.756 573.997 586.763 573.693 586.47 573.687 586.102Z"/><text font-family="Arial,Arial_MSFontService,sans-serif" font-weight="400" font-size="42.6813" transform="matrix(1 0 0 1.00034 40.2668 779)">Suppressed small</text><text font-family="Arial,Arial_MSFontService,sans-serif" font-weight="400" font-size="42.6813" transform="matrix(1 0 0 1.00034 379.373 779)">-</text><text font-family="Arial,Arial_MSFontService,sans-serif" font-weight="400" font-size="42.6813" transform="matrix(1 0 0 1.00034 393.58 779)">scale</text><text font-family="Arial,Arial_MSFontService,sans-serif" font-weight="400" font-size="42.6813" transform="matrix(1 0 0 1.00034 40.2668 828)">structures</text><path d="M226.929 730.095 135.609 578.174 136.752 577.487 228.071 729.407ZM135.637 587.103 135.498 576.696 144.623 581.698C144.945 581.875 145.064 582.28 144.887 582.603 144.71 582.926 144.305 583.044 143.982 582.867L135.86 578.415 136.847 577.821 136.97 587.085C136.975 587.453 136.681 587.756 136.312 587.761 135.944 587.766 135.642 587.471 135.637 587.103Z"/><text font-family="Arial,Arial_MSFontService,sans-serif" font-weight="400" font-size="42.6813" transform="matrix(1 0 0 1.00034 1477.39 778)">Amplified/suppressed</text><text font-family="Arial,Arial_MSFontService,sans-serif" font-weight="400" font-size="42.6813" transform="matrix(1 0 0 1.00034 1477.39 827)">small</text><text font-family="Arial,Arial_MSFontService,sans-serif" font-weight="400" font-size="42.6813" transform="matrix(1 0 0 1.00034 1576.95 827)">-</text><text font-family="Arial,Arial_MSFontService,sans-serif" font-weight="400" font-size="42.6813" transform="matrix(1 0 0 1.00034 1591.15 827)">scale structures</text><path d="M0.516272-0.421791 124.682 151.557 123.649 152.4-0.516272 0.421791ZM123.376 142.726 125.002 153.002 115.256 149.359C114.911 149.231 114.736 148.847 114.865 148.502 114.994 148.157 115.378 147.982 115.723 148.111L124.398 151.353 123.506 152.082 122.059 142.934C122.001 142.571 122.249 142.229 122.613 142.171 122.977 142.114 123.318 142.362 123.376 142.726Z" transform="matrix(1 0 0 -1.00034 1667.5 733.752)"/><text font-family="Arial,Arial_MSFontService,sans-serif" font-weight="400" font-size="42.6813" transform="matrix(1 0 0 1.00034 965.707 779)">Realistic urban</text><text font-family="Arial,Arial_MSFontService,sans-serif" font-weight="400" font-size="42.6813" transform="matrix(1 0 0 1.00034 965.707 828)">roughness</text><path d="M1096.94 730.11 1042.65 645.194 1043.77 644.475 1098.06 729.392ZM1042.92 654.118 1042.5 643.719 1051.76 648.467C1052.08 648.635 1052.21 649.037 1052.05 649.365 1051.88 649.693 1051.48 649.822 1051.15 649.654L1042.91 645.427 1043.88 644.806 1044.26 654.063C1044.27 654.432 1043.99 654.742 1043.62 654.757 1043.25 654.772 1042.94 654.486 1042.92 654.118Z"/><text font-family="Arial,Arial_MSFontService,sans-serif" font-weight="400" font-size="42.6813" transform="matrix(1 0 0 1.00034 1077.32 168)">Isolated tall building</text><path d="M1276.06 178.195 1298.33 212.104 1297.22 212.836 1274.94 178.928ZM1297.95 203.183 1298.5 213.576 1289.18 208.943C1288.86 208.779 1288.72 208.379 1288.88 208.049 1289.05 207.719 1289.45 207.585 1289.78 207.749L1298.07 211.873 1297.11 212.505 1296.62 203.254C1296.6 202.886 1296.88 202.572 1297.25 202.552 1297.61 202.533 1297.93 202.815 1297.95 203.183Z"/></g></svg>